<?xml version="1.0" standalone="no"?>
<!DOCTYPE svg PUBLIC "-//W3C//DTD SVG 20010904//EN"
 "http://www.w3.org/TR/2001/REC-SVG-20010904/DTD/svg10.dtd">
<svg version="1.0" xmlns="http://www.w3.org/2000/svg"
 width="128.000000pt" height="128.000000pt" viewBox="0 0 128.000000 128.000000"
 preserveAspectRatio="xMidYMid meet">
<metadata>
Created by potrace 1.14, written by Peter Selinger 2001-2017
</metadata>
<g transform="translate(0.000000,128.000000) scale(0.100000,-0.100000)"
fill="#000000" stroke="none">
<path d="M316 1229 c-73 -20 -118 -115 -96 -199 6 -21 0 -32 -37 -68 -32 -31
-43 -49 -40 -67 4 -30 30 -60 68 -75 16 -7 29 -15 29 -19 0 -3 -16 -24 -35
-46 -20 -22 -53 -60 -73 -85 -20 -25 -43 -51 -50 -58 -6 -8 -27 -44 -45 -80
-27 -58 -32 -77 -32 -142 0 -62 5 -81 23 -107 27 -39 80 -64 123 -59 23 2 56
-8 109 -34 130 -65 246 -97 380 -106 143 -10 196 21 207 119 3 23 6 43 7 43 0
1 33 4 71 8 131 12 183 26 233 64 42 32 70 71 76 109 3 16 13 49 22 74 29 79
29 115 0 144 -14 14 -35 26 -48 26 -60 4 -89 -1 -134 -21 -52 -24 -54 -25 -94
-33 -14 -3 -38 -10 -53 -16 -16 -6 -32 -11 -37 -11 -5 0 -6 31 -3 68 l6 68
-40 42 c-23 24 -49 42 -61 42 -12 0 -22 6 -22 13 0 20 -52 72 -103 101 -26 15
-44 32 -41 37 3 5 6 27 6 50 0 29 -6 47 -23 65 -26 28 -34 29 -71 10 -27 -14
-28 -14 -49 29 -43 85 -112 131 -173 114z"/>
</g>
</svg>
